<svg xmlns="http://www.w3.org/2000/svg" xmlns:xlink="http://www.w3.org/1999/xlink" id="layer" x="0px" y="0px" viewBox="0 0 652 652" style="enable-background:new 0 0 652 652;" xml:space="preserve"><style type="text/css">	.st0{clip-path:url(#SVGID_2_);fill:url(#SVGID_3_);}	.st1{clip-path:url(#SVGID_5_);fill:url(#SVGID_6_);}	.st2{clip-path:url(#SVGID_8_);fill:url(#SVGID_9_);}	.st3{clip-path:url(#SVGID_11_);fill:url(#SVGID_12_);}	.st4{clip-path:url(#SVGID_14_);fill:url(#SVGID_15_);}	.st5{clip-path:url(#SVGID_17_);fill:url(#SVGID_18_);}	.st6{clip-path:url(#SVGID_20_);fill:url(#SVGID_21_);}	.st7{clip-path:url(#SVGID_23_);fill:url(#SVGID_24_);}</style><g>	<defs>		<path id="SVGID_1_" d="M250.2,299.2c0.2-0.5,0.4-0.7,0.4-0.7c0,0,0.2-0.1,0.9-0.1c0.7,0,0.9,0.1,0.9,0.1c0,0,0.2,0.2,0.3,0.7   l9.8,27h-22.1L250.2,299.2z M246.2,285.3c-2.1,0.2-4.1,0.6-6,1.3c-2,0.7-3.8,1.7-5.6,3.1c-1.8,1.4-3.1,3.3-4.1,5.7l-23.5,60   l-0.2,0.5v0.4c0,0.9,0.5,1.7,1.3,2.2c0.7,0.4,1.5,0.6,2.4,0.6h15.2c0.9,0,1.7-0.2,2.3-0.7c0.7-0.4,1.1-1,1.4-1.7l6.3-17.5h31.5   l6.3,17.5c0.3,0.6,0.8,1.2,1.4,1.6c0.7,0.4,1.4,0.7,2.4,0.7h15.2c0.9,0,1.7-0.2,2.4-0.6c0.8-0.5,1.2-1.3,1.2-2.2l-23.7-60.9   c-0.9-2.4-2.3-4.3-4.1-5.7c-1.7-1.3-3.6-2.4-5.6-3.1c-1.9-0.7-3.9-1.1-6-1.3c-2-0.2-3.7-0.3-5.4-0.3   C249.8,285,248.1,285.1,246.2,285.3"></path>	</defs>	<clipPath id="SVGID_2_">		<use xlink:href="#SVGID_1_" style="overflow:visible;"></use>	</clipPath>			<linearGradient id="SVGID_3_" gradientUnits="userSpaceOnUse" x1="-81.8531" y1="651.9377" x2="-66.5925" y2="651.9377" gradientTransform="matrix(0 5.028 5.028 0 -3026.4424 696.2116)">		<stop offset="0" style="stop-color:#00A6E9"></stop>		<stop offset="0.1778" style="stop-color:#00A1E3"></stop>		<stop offset="0.4104" style="stop-color:#0092D3"></stop>		<stop offset="0.6732" style="stop-color:#007AB8"></stop>		<stop offset="0.9565" style="stop-color:#005992"></stop>		<stop offset="1" style="stop-color:#00538C"></stop>	</linearGradient>	<rect x="206.7" y="285" class="st0" width="89.5" height="74.1"></rect></g><g>	<defs>		<path id="SVGID_4_" d="M307.9,285.8c-1,0-1.9,0.3-2.6,0.8c-1.1,0.7-1.4,1.6-1.4,2.3v50.4c0,4.3,0.9,7.8,2.8,10.6   c1.8,2.7,4.3,4.8,7.5,6.3c3.1,1.5,6.7,2.5,10.8,3c4.1,0.5,8.5,0.8,13.2,0.8c1.9,0,4.1,0,6.5-0.1c2.4-0.1,4.8-0.2,7.1-0.3   c2.3-0.1,4.5-0.3,6.4-0.4c2-0.2,3.6-0.4,4.6-0.5c1.2-0.1,2.1-0.4,2.7-0.7c0.5-0.3,1.2-1,1.2-2.4v-6.1c0-0.6-0.2-1.5-1.4-2.3   c-0.8-0.5-1.6-0.7-2.6-0.7h-26.4c-4,0-6.7-0.5-8.1-1.5c-1.3-0.9-2-2.8-2-5.6v-50.4c0-0.6-0.2-1.5-1.4-2.3   c-0.8-0.5-1.6-0.8-2.6-0.8H307.9z"></path>	</defs>	<clipPath id="SVGID_5_">		<use xlink:href="#SVGID_4_" style="overflow:visible;"></use>	</clipPath>			<linearGradient id="SVGID_6_" gradientUnits="userSpaceOnUse" x1="-81.853" y1="667.5115" x2="-66.5925" y2="667.5115" gradientTransform="matrix(0 5.028 5.028 0 -3020.9517 696.2117)">		<stop offset="0" style="stop-color:#00A6E9"></stop>		<stop offset="0.1778" style="stop-color:#00A1E3"></stop>		<stop offset="0.4104" style="stop-color:#0092D3"></stop>		<stop offset="0.6732" style="stop-color:#007AB8"></stop>		<stop offset="0.9565" style="stop-color:#005992"></stop>		<stop offset="1" style="stop-color:#00538C"></stop>	</linearGradient>	<rect x="303.9" y="285.8" class="st1" width="62.7" height="74.1"></rect></g><g>	<defs>		<path id="SVGID_7_" d="M605.9,285.8c-3.5,0-3.9,2.1-3.9,2.9v49.5l-33.3-48.9c-1-1.5-2-2.4-3.1-2.9c-1.1-0.4-2.4-0.7-4.1-0.7H546   c-1.8,0-3.4,0.4-4.7,1.3c-1.8,1.2-2.1,2.7-2.1,3.6v65.4c0,0.6,0.2,1.5,1.3,2.3c0.8,0.5,1.6,0.8,2.6,0.8h12.2c1,0,1.9-0.3,2.6-0.8   c1-0.7,1.2-1.6,1.2-2.2v-47.5l31.8,46.6c1.3,2,2.9,3.2,4.7,3.5c1.6,0.3,3.3,0.4,5,0.4h14.5c1.8,0,3.4-0.4,4.7-1.3   c1.8-1.2,2.1-2.7,2.1-3.7v-65.5c0-0.9-0.4-2.9-3.9-2.9H605.9z"></path>	</defs>	<clipPath id="SVGID_8_">		<use xlink:href="#SVGID_7_" style="overflow:visible;"></use>	</clipPath>			<linearGradient id="SVGID_9_" gradientUnits="userSpaceOnUse" x1="-81.853" y1="713.1041" x2="-66.5925" y2="713.1041" gradientTransform="matrix(0 5.028 5.028 0 -3004.877 696.2117)">		<stop offset="0" style="stop-color:#00A6E9"></stop>		<stop offset="0.1778" style="stop-color:#00A1E3"></stop>		<stop offset="0.4104" style="stop-color:#0092D3"></stop>		<stop offset="0.6732" style="stop-color:#007AB8"></stop>		<stop offset="0.9565" style="stop-color:#005992"></stop>		<stop offset="1" style="stop-color:#00538C"></stop>	</linearGradient>	<rect x="539.1" y="285.8" class="st2" width="82.9" height="73.4"></rect></g><g>	<defs>		<path id="SVGID_10_" d="M398.5,285.8c-4.1,0.5-7.8,1.6-10.9,3c-3.1,1.5-5.7,3.7-7.5,6.4c-1.9,2.7-2.8,6.3-2.8,10.6v50.3   c0,0.6,0.2,1.5,1.4,2.3c0.8,0.5,1.7,0.8,2.6,0.8h14.2c1,0,1.9-0.3,2.6-0.8c1.1-0.7,1.4-1.6,1.4-2.3v-50.3c0-2.8,0.7-4.7,2-5.6   c1.5-1,4.2-1.5,8.2-1.5H439c1,0,1.9-0.3,2.6-0.8c1.1-0.7,1.4-1.6,1.4-2.2v-6.1c0-1.4-0.7-2.1-1.2-2.4c-0.6-0.4-1.4-0.6-2.7-0.7   l-3.8-0.4c-1.4-0.2-3.1-0.3-5.2-0.4c-2.1-0.1-4.6-0.2-7.5-0.3c-2.8-0.1-6.4-0.1-10.9-0.1C407,285,402.6,285.3,398.5,285.8"></path>	</defs>	<clipPath id="SVGID_11_">		<use xlink:href="#SVGID_10_" style="overflow:visible;"></use>	</clipPath>			<linearGradient id="SVGID_12_" gradientUnits="userSpaceOnUse" x1="-81.853" y1="681.4277" x2="-66.5924" y2="681.4277" gradientTransform="matrix(0 5.028 5.028 0 -3016.0344 696.21)">		<stop offset="0" style="stop-color:#00A6E9"></stop>		<stop offset="0.1778" style="stop-color:#00A1E3"></stop>		<stop offset="0.4104" style="stop-color:#0092D3"></stop>		<stop offset="0.6732" style="stop-color:#007AB8"></stop>		<stop offset="0.9565" style="stop-color:#005992"></stop>		<stop offset="1" style="stop-color:#00538C"></stop>	</linearGradient>	<rect x="377.3" y="285" class="st3" width="65.7" height="74.1"></rect></g><g>	<defs>		<path id="SVGID_13_" d="M409.3,315v12.9h28c1,0,1.9-0.3,2.6-0.8c1.1-0.7,1.3-1.6,1.3-2.3V318c0-0.6-0.2-1.5-1.3-2.3   c-0.7-0.5-1.6-0.7-2.6-0.7H409.3z"></path>	</defs>	<clipPath id="SVGID_14_">		<use xlink:href="#SVGID_13_" style="overflow:visible;"></use>	</clipPath>			<linearGradient id="SVGID_15_" gradientUnits="userSpaceOnUse" x1="-81.853" y1="684.241" x2="-66.5925" y2="684.241" gradientTransform="matrix(0 5.028 5.028 0 -3015.053 696.2117)">		<stop offset="0" style="stop-color:#00A6E9"></stop>		<stop offset="0.1778" style="stop-color:#00A1E3"></stop>		<stop offset="0.4104" style="stop-color:#0092D3"></stop>		<stop offset="0.6732" style="stop-color:#007AB8"></stop>		<stop offset="0.9565" style="stop-color:#005992"></stop>		<stop offset="1" style="stop-color:#00538C"></stop>	</linearGradient>	<rect x="409.3" y="315" class="st4" width="31.9" height="12.9"></rect></g><g>	<defs>		<path id="SVGID_16_" d="M488.2,315v12.9h28.9c1,0,1.9-0.3,2.6-0.8c1.1-0.7,1.4-1.6,1.4-2.3V318c0-0.6-0.2-1.5-1.4-2.3   c-0.7-0.5-1.6-0.7-2.6-0.7H488.2z"></path>	</defs>	<clipPath id="SVGID_17_">		<use xlink:href="#SVGID_16_" style="overflow:visible;"></use>	</clipPath>			<linearGradient id="SVGID_18_" gradientUnits="userSpaceOnUse" x1="-81.853" y1="698.9924" x2="-66.5925" y2="698.9924" gradientTransform="matrix(0 5.028 5.028 0 -3009.8528 696.2117)">		<stop offset="0" style="stop-color:#00A6E9"></stop>		<stop offset="0.1778" style="stop-color:#00A1E3"></stop>		<stop offset="0.4104" style="stop-color:#0092D3"></stop>		<stop offset="0.6732" style="stop-color:#007AB8"></stop>		<stop offset="0.9565" style="stop-color:#005992"></stop>		<stop offset="1" style="stop-color:#00538C"></stop>	</linearGradient>	<rect x="488.2" y="315" class="st5" width="32.9" height="12.9"></rect></g><g>	<defs>		<path id="SVGID_19_" d="M478.3,285.8c-4.1,0.5-7.8,1.6-10.9,3c-3.2,1.5-5.7,3.7-7.5,6.4c-1.8,2.7-2.8,6.3-2.8,10.6v33.4   c0,4.3,0.9,7.8,2.8,10.6c1.8,2.7,4.4,4.8,7.5,6.3c3.1,1.5,6.7,2.5,10.9,3c4.1,0.5,8.6,0.8,13.2,0.8c4.3,0,8-0.1,10.9-0.2   s5.4-0.2,7.5-0.4c2.1-0.1,3.8-0.3,5.2-0.4l3.8-0.4c1.3-0.1,2.1-0.4,2.7-0.7c0.5-0.3,1.2-1,1.2-2.4v-6.1c0-0.6-0.2-1.5-1.4-2.3   c-0.7-0.5-1.6-0.7-2.6-0.7h-29.3c-4,0-6.7-0.5-8.2-1.5c-1.4-0.9-2-2.8-2-5.6v-33.4c0-2.8,0.7-4.7,2-5.6c1.5-1,4.3-1.5,8.2-1.5   h29.3c1,0,1.9-0.3,2.6-0.8c1.1-0.7,1.3-1.6,1.3-2.2v-6.1c0-1.4-0.6-2.1-1.2-2.4c-0.6-0.4-1.4-0.6-2.7-0.7l-3.8-0.4   c-1.4-0.2-3.2-0.3-5.2-0.4s-4.6-0.2-7.5-0.3c-2.8-0.1-6.4-0.1-10.9-0.1C486.8,285,482.4,285.3,478.3,285.8"></path>	</defs>	<clipPath id="SVGID_20_">		<use xlink:href="#SVGID_19_" style="overflow:visible;"></use>	</clipPath>			<linearGradient id="SVGID_21_" gradientUnits="userSpaceOnUse" x1="-81.853" y1="696.2624" x2="-66.5925" y2="696.2624" gradientTransform="matrix(0 5.028 5.028 0 -3010.8145 696.2117)">		<stop offset="0" style="stop-color:#00A6E9"></stop>		<stop offset="0.1778" style="stop-color:#00A1E3"></stop>		<stop offset="0.4104" style="stop-color:#0092D3"></stop>		<stop offset="0.6732" style="stop-color:#007AB8"></stop>		<stop offset="0.9565" style="stop-color:#005992"></stop>		<stop offset="1" style="stop-color:#00538C"></stop>	</linearGradient>	<rect x="457.2" y="285" class="st6" width="65.7" height="74.9"></rect></g><g>	<defs>		<path id="SVGID_22_" d="M42.6,340.8C62.7,375.7,95,394.8,95,394.8s-0.3-32.9-16.9-65.8C57.4,332.5,42.6,340.8,42.6,340.8    M95,394.8c0,0,32.3-19.1,52.4-53.9c-0.2-0.1-15-8.4-35.5-11.8C95.3,361.9,95,394.8,95,394.8 M119.4,316   c13.2,16.1,27.8,24.7,28,24.9c20.1-34.9,20.5-72.4,20.5-72.4S139.6,285.2,119.4,316 M167.9,268.5L167.9,268.5 M22.1,268.5   L22.1,268.5c0,0.6,0.5,37.8,20.5,72.4c0,0,14.7-8.7,28-24.8C50.4,285.2,22.1,268.5,22.1,268.5s28.7,16.2,65.4,18.3   C94.8,267.1,95,250,95,250C54.7,250,22.1,268.5,22.1,268.5 M102.5,286.7c36.7-2.1,65.4-18.3,65.4-18.3S135.3,250,95,250   C95,250,95.2,267.1,102.5,286.7"></path>	</defs>	<clipPath id="SVGID_23_">		<use xlink:href="#SVGID_22_" style="overflow:visible;"></use>	</clipPath>			<linearGradient id="SVGID_24_" gradientUnits="userSpaceOnUse" x1="-93.2306" y1="627.3942" x2="-77.9701" y2="627.3942" gradientTransform="matrix(-5.2036 9.6135 9.6135 5.2036 -6385.9546 -2111.8025)">		<stop offset="0" style="stop-color:#00A6E9"></stop>		<stop offset="0.232" style="stop-color:#00A3E6"></stop>		<stop offset="0.4329" style="stop-color:#0099DB"></stop>		<stop offset="0.6223" style="stop-color:#008AC9"></stop>		<stop offset="0.8046" style="stop-color:#0073B0"></stop>		<stop offset="0.9804" style="stop-color:#005790"></stop>		<stop offset="1" style="stop-color:#00538C"></stop>	</linearGradient>	<polygon class="st7" points="228.5,282.8 134.9,455.9 -38.5,362 55.1,189  "></polygon></g></svg>