<svg xmlns="http://www.w3.org/2000/svg" xmlns:xlink="http://www.w3.org/1999/xlink" id="layer" x="0px" y="0px" viewBox="0 0 652 652" style="enable-background:new 0 0 652 652;" xml:space="preserve"><style type="text/css">	.st0{fill:#0EAB4A;}</style><g>	<path class="st0" d="M595.4,284.1c-8.7,0-15.6,2-32.9,7.9c-4-4.6-10.7-7.8-20.2-7.8c-8.8,0-15.3,2.3-30,7.8v-6h-27.1v90h28.1v-70.4  c4.9-1,9.8-1.7,13.5-1.6c10.7,0,14.2,4,14.2,12.1v60h28.1v-63.1c0-2.4,0-3.4-0.6-5.9c0-0.3,0-0.7-0.2-1.1c6.3-1.2,9.8-1.8,13.5-1.8  c11.2-0.1,15.2,3.9,15.2,14.1v57.9H625v-61.2C625,290.7,612.4,284.1,595.4,284.1"></path>	<path class="st0" d="M436.5,376v-5.9c-11,4.7-17.7,7.2-25.7,7.2c-14.4,0-27.4-9.2-27.4-27.9c0-18.1,10.8-26.4,28.6-28.4  c7.5-0.9,15.1-1.2,23.7-1.2v-7c0-7.9-5.5-10.8-15.3-10.8c-8.1,0-18.7,1-29,2.8v-14.5c15.9-3.9,27.7-6.1,38.6-6.1  c9.3,0,17.6,1.9,23,6c6.2,4.6,9.3,11.6,9.3,24.7V376H436.5z M435.6,334c-7,0.2-10,0.4-13.6,1c-7.4,1.3-11.3,5.2-11.3,11.9  c0,9.2,6.1,12.6,14.6,12.6c3.4,0,7-0.5,10.3-1.2V334z"></path>	<path class="st0" d="M368.6,328c0,33.9-25.3,49.3-50.8,49.3c-11.1,0-22-2-37.5-6V241.4h28v49.9c10.8-4.7,16.9-7,24.7-7  C352.2,284.3,368.6,298.6,368.6,328 M340.1,331.1c0-21.2-12.1-27-22.1-27c-3.4,0-6,0.3-9.6,1v54.5c2.9,0.3,5.2,0.5,7.5,0.4  C330.6,359.8,340.1,351,340.1,331.1"></path>	<polygon class="st0" points="81.6,394.9 103.1,375.5 161.8,410.6 243,294.8 202.3,285.8 214.4,246.1 173.2,241.4 150.7,251.6   195.6,258.4 184,302.4 171.1,298.8 177.5,270.3 129.7,261.1 99.7,274.7 150.7,287.8 142.5,339.9 125.1,332.6 128.1,302.7   75.4,285.7 25,308.6 78.2,335.4  "></polygon></g></svg>