<svg xmlns:inkscape="http://www.inkscape.org/namespaces/inkscape" xmlns:sodipodi="http://sodipodi.sourceforge.net/DTD/sodipodi-0.dtd" xmlns="http://www.w3.org/2000/svg" xmlns:svg="http://www.w3.org/2000/svg" id="SHELL_x5F_RECHARGE_x5F_PECTEN_x5F_COLOUR_x5F_RGB" x="0px" y="0px" viewBox="0 0 207 64.999997" xml:space="preserve" sodipodi:docname="Shell Recharge Logo.svg" width="207" height="65" inkscape:version="1.1 (c68e22c387, 2021-05-23)"><defs id="defs5514">																																																																														</defs><style type="text/css" id="style5395">	.st0{fill:#DD1D21;}	.st1{fill:#0097A9;}	.st2{fill:#FBCE07;}	.st3{fill-rule:evenodd;clip-rule:evenodd;fill:#DD1D21;}	.st4{fill:#404040;}</style><g id="g6675" transform="translate(-92,-0.28355388)"><g id="g5407" style="fill:#ed1d24;fill-opacity:1">			<path class="st0" d="m 103.9,7.7 c -0.9,-0.8 -2.1,-1.3 -3.3,-1.3 -0.9,0 -2.1,0.5 -2.1,1.6 0,1.1 1.3,1.5 2.2,1.8 l 1.3,0.4 c 2.7,0.8 4.7,2.1 4.7,5.2 0,1.9 -0.5,3.8 -2,5.1 -1.5,1.3 -3.5,1.8 -5.4,1.8 -2.4,0 -4.7,-0.8 -6.7,-2.2 l 2.1,-4 c 1.2,1.1 2.7,2 4.4,2 1.2,0 2.4,-0.6 2.4,-1.9 0,-1.4 -1.9,-1.9 -3,-2.2 -3.1,-0.9 -5.2,-1.7 -5.2,-5.4 0,-3.9 2.8,-6.4 6.6,-6.4 1.9,0 4.3,0.6 6,1.6 z" id="path5397" style="fill:#ed1d24;fill-opacity:1"></path>			<path class="st0" d="m 113.5,0.9 v 9.6 h 0.1 c 1.1,-1.4 2.3,-2.1 4.1,-2.1 3.3,0 4.9,2.2 4.9,5.5 v 7.9 H 118 v -6.6 c 0,-1.5 -0.2,-3.1 -2.1,-3.1 -1.8,0 -2.4,1.6 -2.4,3.1 v 6.6 h -4.6 v -21 h 4.6 z" id="path5399" style="fill:#ed1d24;fill-opacity:1"></path>			<path class="st0" d="m 138.9,16.2 h -9.7 c 0,1.9 1,2.9 2.9,2.9 1,0 1.7,-0.3 2.2,-1.2 h 4.4 c -0.4,1.5 -1.3,2.6 -2.5,3.4 -1.2,0.7 -2.7,1.1 -4.1,1.1 -4.3,0 -7.5,-2.4 -7.5,-6.9 0,-4.3 3,-6.9 7.2,-6.9 4.5,0 7.1,2.8 7.1,7.2 z m -4.3,-2.7 c -0.2,-1.2 -1.4,-2 -2.6,-2 -1.3,0 -2.5,0.7 -2.7,2 z" id="path5401" style="fill:#ed1d24;fill-opacity:1"></path>			<path class="st0" d="M 145.6,21.9 H 141 v -21 h 4.6 z" id="path5403" style="fill:#ed1d24;fill-opacity:1"></path>			<path class="st0" d="m 153.2,21.9 h -4.6 v -21 h 4.6 z" id="path5405" style="fill:#ed1d24;fill-opacity:1"></path>		</g><g id="g5425">			<path class="st1" d="m 115.6,55.6 h -8.9 L 99.8,45 H 99.7 V 55.6 H 92.5 V 28 h 10.7 c 5.5,0 9.6,2.6 9.6,8.5 0,3.8 -2.1,7.1 -6,7.8 z M 99.8,40.4 h 0.7 c 2.3,0 5,-0.4 5,-3.4 0,-3 -2.6,-3.4 -5,-3.4 h -0.7 z" id="path5409"></path>			<path class="st1" d="m 136.7,47.4 h -14 c 0,2.7 1.4,4.2 4.2,4.2 1.4,0 2.5,-0.5 3.2,-1.7 h 6.4 c -0.5,2.2 -1.8,3.8 -3.6,4.9 -1.7,1.1 -3.8,1.6 -6,1.6 -6.2,0 -10.9,-3.5 -10.9,-10 0,-6.3 4.3,-10 10.4,-10 6.5,0 10.3,4 10.3,10.4 z m -6.2,-3.9 c -0.3,-1.8 -2,-3 -3.8,-3 -1.9,0 -3.6,1 -4,3 z" id="path5411"></path>			<path class="st1" d="m 153.3,43 c -1,-0.7 -2.2,-1.3 -3.4,-1.3 -2.6,0 -4.6,2 -4.6,4.6 0,2.7 1.9,4.6 4.7,4.6 1.2,0 2.5,-0.5 3.3,-1.3 v 5.6 c -1.5,0.7 -3.1,1.1 -4.7,1.1 -5.6,0 -10.2,-4.1 -10.2,-9.8 0,-6 4.6,-10.2 10.5,-10.2 1.5,0 3.1,0.4 4.4,1.1 z" id="path5413"></path>			<path class="st1" d="m 164.1,25.2 v 14 h 0.1 c 1.5,-2.1 3.4,-3 6,-3 4.8,0 7.1,3.2 7.1,7.9 v 11.5 h -6.7 V 46 c 0,-2.2 -0.3,-4.5 -3,-4.5 -2.6,0 -3.5,2.3 -3.5,4.5 v 9.6 h -6.7 V 25.2 Z" id="path5415"></path>			<path class="st1" d="m 202.2,55.6 h -6.7 v -2.1 h -0.1 c -1.2,1.9 -3.5,2.7 -5.7,2.7 -5.6,0 -9.5,-4.7 -9.5,-10 0,-5.4 3.8,-10 9.4,-10 2.2,0 4.4,0.8 5.8,2.5 v -1.8 h 6.7 z m -15,-9.3 c 0,2.4 1.6,4.2 4.3,4.2 2.7,0 4.3,-1.8 4.3,-4.2 0,-2.3 -1.6,-4.3 -4.3,-4.3 -2.7,0 -4.3,2 -4.3,4.3 z" id="path5417"></path>			<path class="st1" d="m 213.3,39.9 v 0 c 1.4,-2.3 3.6,-3.3 6.2,-3.3 h 1.3 V 43 c -0.9,-0.5 -1.8,-0.6 -2.8,-0.6 -3.7,0 -4.6,2.5 -4.6,5.7 v 7.6 h -6.7 V 36.8 h 6.7 v 3.1 z" id="path5419"></path>			<path class="st1" d="m 244.5,53.8 c 0,8 -4,11.2 -10.9,11.2 -4.3,0 -10.1,-2.2 -10.7,-7.2 h 7.5 c 0.2,0.7 0.7,1.1 1.2,1.4 0.6,0.3 1.3,0.4 1.9,0.4 3.6,0 4.3,-2.3 4.3,-5.4 v -0.9 c -1.7,1.7 -3.5,2.6 -6,2.6 -5.5,0 -9.3,-4.2 -9.3,-9.6 0,-5.5 3.9,-10.2 9.6,-10.2 2.2,0 4.2,0.7 5.5,2.6 h 0.1 v -2 h 6.7 z m -15,-7.7 c 0,2.4 1.6,4.2 4.3,4.2 2.7,0 4.3,-1.8 4.3,-4.2 0,-2.3 -1.6,-4.3 -4.3,-4.3 -2.7,0.1 -4.3,2 -4.3,4.3 z" id="path5421"></path>			<path class="st1" d="m 268,47.4 h -14 c 0,2.7 1.4,4.2 4.2,4.2 1.4,0 2.5,-0.5 3.2,-1.7 h 6.4 c -0.5,2.2 -1.8,3.8 -3.6,4.9 -1.7,1.1 -3.8,1.6 -6,1.6 -6.2,0 -10.9,-3.5 -10.9,-10 0,-6.3 4.3,-10 10.4,-10 6.5,0 10.3,4 10.3,10.4 z m -6.2,-3.9 c -0.3,-1.8 -2,-3 -3.8,-3 -1.9,0 -3.6,1 -4,3 z" id="path5423"></path>		</g><g id="g5431">			<path class="st1" d="m 298.1,9.8 c -0.7,-0.7 -1.8,-0.7 -2.5,0 l -8.1,8.1 c -0.7,0.7 -0.7,1.8 0,2.5 l 4.1,4.1 v 0 c -4.3,4.4 -11.3,4.7 -15.9,0.7 L 285.8,15 c 0.3,-0.3 0.3,-0.8 0,-1.1 l -10,-10.1 c -0.3,-0.3 -0.7,-0.3 -1,-0.1 l -0.7,0.5 c -0.6,0.4 -1.1,0.9 -1.6,1.4 -2.9,2.9 -4.4,6.7 -4.4,10.7 0,3.2 1,6.2 2.8,8.7 l -3.5,3.5 c -0.7,0.7 -0.7,1.9 0,2.5 0.7,0.7 1.8,0.7 2.5,0 l 3.4,-3.4 c 2.8,2.5 6.3,3.8 10.1,3.8 4.1,0 7.9,-1.6 10.7,-4.4 0.5,-0.5 1,-1 1.4,-1.6 l 0.5,-0.7 c 0.2,-0.3 0.2,-0.7 -0.1,-1 l -4.6,-4.6 6.9,-6.9 c 0.6,-0.6 0.6,-1.7 -0.1,-2.4 z M 275,8 l 6.4,6.4 -8.1,8.1 C 270.5,18 271,11.9 275,8 Z" id="path5427"></path>			<path class="st1" d="m 285.6,8.1 4.2,-4.2 c 0.7,-0.7 0.7,-1.8 0,-2.5 -0.7,-0.7 -1.8,-0.7 -2.5,0 l -4.2,4.2 c -0.7,0.7 -0.7,1.8 0,2.5 0.7,0.7 1.8,0.7 2.5,0 z" id="path5429"></path>		</g></g></svg>