<svg xmlns="http://www.w3.org/2000/svg" xmlns:xlink="http://www.w3.org/1999/xlink" id="layer" x="0px" y="0px" viewBox="0 0 652 652" style="enable-background:new 0 0 652 652;" xml:space="preserve"><style type="text/css">	.st0{fill:#DC0816;}</style><polygon class="st0" points="146.3,257.5 146.3,385.4 235.2,385.4 235.2,367.7 187.2,367.7 187.2,330.3 227.2,330.3 227.2,315.2  187.2,315.2 187.2,272.6 232.5,272.6 232.5,257.5 "></polygon><polygon class="st0" points="326.3,257.5 326.3,273.9 357.9,273.9 357.9,385.4 398.7,385.4 398.7,273.9 429,273.9 429,257.5 "></polygon><polygon class="st0" points="436.1,257.5 436.1,385.4 523.6,385.4 523.6,367.7 477,367.7 477,330.3 517,330.3 517,315.2 477,315.2  477,272.6 521,272.6 521,257.5 "></polygon><polygon class="st0" points="530.7,257.5 530.7,385.4 620.1,385.4 620.1,367.7 573.4,367.7 573.4,257.5 "></polygon><polygon class="st0" points="119.9,257.4 92.4,346.7 64,257.4 20.1,257.4 65.1,385.4 98,385.4 141.9,257.4 "></polygon><path class="st0" d="M321.5,256.5h-34.7c0,0-41.2,1.5-44.4,39.8c-3.2,38.4,39.6,37.5,47.5,53.9c5.1,10.5-7.4,18.5-17.9,18.5h-28.6 v17.7h48.5c0,0,50.8-2.7,43.7-46.4c-4.6-28.1-35.7-23.8-46.1-42.7c-10.4-18.9,7.7-24.3,9.7-24.3h22.1L321.5,256.5z"></path></svg>